# xmcd
#
# Track frame offsets:
#	150
#	14898
#	35845
#	59890
#	85731
#	98978
#	115975
#	139284
#	158349
#	181786
#	189358
#	217687
#	247506
#	262700
#	292340
#
# Disc length: 4192 seconds
# Revision: 0
# Processed by: cddbd v1.5.2PL0 Copyright (c) Steve Scherf et al.
# Submitted via: dBpowerAMP V12.0
#
DISCID=cf105e0f
DTITLE=Anna Maria Jokl - Die Perlmutterfarbe CD4
DYEAR=1900
DGENRE=
TTITLE0=Wieder ein Brief
TTITLE1=Der geheimnisvolle Dritte
TTITLE2=Der geheimnisvolle Dritte
TTITLE3=Die gefürchtete Frage
TTITLE4=Ein Unglücksfall
TTITLE5=Noch einmal abgebremst
TTITLE6=Ein Freund der Wahrheit und Gerechtigkeit
TTITLE7=Die Gruppen
TTITLE8=Der karierte Rock
TTITLE9=Suppe und Limonade
TTITLE10=Die große Gemeinheit
TTITLE11=Anklagerede
TTITLE12=Die Beichte
TTITLE13=Beratung im Schnee
TTITLE14=Beratung im Schnee
EXTD=
EXTT0=
EXTT1=
EXTT2=
EXTT3=
EXTT4=
EXTT5=
EXTT6=
EXTT7=
EXTT8=
EXTT9=
EXTT10=
EXTT11=
EXTT12=
EXTT13=
EXTT14=
PLAYORDER=
